<svg width="24" height="24" viewBox="0 0 24 24" fill="none" xmlns="http://www.w3.org/2000/svg">
<path d="M10.9091 9.27272V10.3636H9.81815V12H10.9091V16.9091H13.0909V12H14.5418L14.7272 10.3636H13.0909V9.40908C13.0909 8.96729 13.1345 8.73273 13.8163 8.73273H14.7272V7.09088H13.2654C11.52 7.09093 10.9091 7.90908 10.9091 9.27272Z" fill="black" fill-opacity="0.4"/>
<path d="M12 0C5.37258 0 0 5.37258 0 12C0 18.6274 5.37258 24 12 24C18.6274 24 24 18.6274 24 12C24 5.37258 18.6274 0 12 0ZM12 22.9091C5.97506 22.9091 1.09092 18.0249 1.09092 12C1.09092 5.97506 5.97506 1.09092 12 1.09092C18.0249 1.09092 22.9091 5.97506 22.9091 12C22.9091 18.0249 18.0249 22.9091 12 22.9091Z" fill="black" fill-opacity="0.4"/>
</svg>
