<svg width="24" height="24" viewBox="0 0 24 24" fill="none" xmlns="http://www.w3.org/2000/svg">
<path d="M9.91306 7.30435H22.4348C23.2992 7.30435 24 6.60355 24 5.73913C24 4.87471 23.2992 4.17391 22.4348 4.17391H9.91306C9.04864 4.17391 8.34784 4.87471 8.34784 5.73913C8.34784 6.60355 9.04864 7.30435 9.91306 7.30435Z" fill="black"/>
<path d="M22.4348 10.4348H9.91306C9.04864 10.4348 8.34784 11.1356 8.34784 12C8.34784 12.8644 9.04864 13.5652 9.91306 13.5652H22.4348C23.2992 13.5652 24 12.8644 24 12C24 11.1356 23.2992 10.4348 22.4348 10.4348Z" fill="black"/>
<path d="M22.4348 16.6956H9.91306C9.04864 16.6956 8.34784 17.3964 8.34784 18.2609C8.34784 19.1253 9.04864 19.8261 9.91306 19.8261H22.4348C23.2992 19.8261 24 19.1253 24 18.2609C24 17.3964 23.2992 16.6956 22.4348 16.6956Z" fill="black"/>
<path d="M1.56522 16.6956C1.15304 16.6956 0.750157 16.8626 0.458087 17.1537C0.166957 17.4459 0 17.8487 0 18.2609C0 18.673 0.166957 19.0758 0.458087 19.368C0.750157 19.6591 1.15304 19.8261 1.56522 19.8261C1.97739 19.8261 2.38017 19.6591 2.67224 19.368C2.96337 19.0758 3.13043 18.673 3.13043 18.2609C3.13043 17.8487 2.96337 17.4459 2.67224 17.1537C2.38017 16.8626 1.97739 16.6956 1.56522 16.6956Z" fill="black"/>
<path d="M1.56522 10.4348C1.15304 10.4348 0.750157 10.6017 0.458087 10.8929C0.166957 11.185 0 11.5878 0 12C0 12.4122 0.166957 12.815 0.458087 13.1071C0.750157 13.3983 1.15304 13.5652 1.56522 13.5652C1.97739 13.5652 2.38017 13.3983 2.67224 13.1071C2.96337 12.815 3.13043 12.4122 3.13043 12C3.13043 11.5878 2.96337 11.185 2.67224 10.8929C2.38017 10.6017 1.97739 10.4348 1.56522 10.4348Z" fill="black"/>
<path d="M1.56522 4.17391C1.15304 4.17391 0.750157 4.34087 0.458087 4.632C0.166957 4.92417 0 5.32696 0 5.73913C0 6.1513 0.166957 6.55409 0.458087 6.84626C0.750157 7.13739 1.15304 7.30435 1.56522 7.30435C1.97739 7.30435 2.38017 7.13739 2.67224 6.84626C2.96337 6.55409 3.13043 6.1513 3.13043 5.73913C3.13043 5.32696 2.96337 4.92417 2.67224 4.632C2.38017 4.34087 1.97739 4.17391 1.56522 4.17391Z" fill="black"/>
</svg>
